<?xml version="1.0" encoding="UTF-8" standalone="no"?>
<!-- Created with Inkscape (http://www.inkscape.org/) -->

<svg
   xmlns:dc="http://purl.org/dc/elements/1.1/"
   xmlns:cc="http://creativecommons.org/ns#"
   xmlns:rdf="http://www.w3.org/1999/02/22-rdf-syntax-ns#"
   xmlns:svg="http://www.w3.org/2000/svg"
   xmlns="http://www.w3.org/2000/svg"
   xmlns:xlink="http://www.w3.org/1999/xlink"
   xmlns:sodipodi="http://sodipodi.sourceforge.net/DTD/sodipodi-0.dtd"
   xmlns:inkscape="http://www.inkscape.org/namespaces/inkscape"
   width="1000"
   height="1000"
   viewBox="0 0 264.58333 264.58334"
   version="1.1"
   id="svg8"
   sodipodi:docname="icon.svg"
   inkscape:version="0.92.4 (5da689c313, 2019-01-14)">
  <defs
     id="defs2">
    <linearGradient
       inkscape:collect="always"
       id="linearGradient891">
      <stop
         style="stop-color:#ff00ff;stop-opacity:1"
         offset="0"
         id="stop887" />
      <stop
         style="stop-color:#0000ff;stop-opacity:1"
         offset="1"
         id="stop889" />
    </linearGradient>
    <linearGradient
       inkscape:collect="always"
       xlink:href="#linearGradient891"
       id="linearGradient893"
       x1="179.41586"
       y1="178.13733"
       x2="821.66943"
       y2="821.27472"
       gradientUnits="userSpaceOnUse" />
  </defs>
  <sodipodi:namedview
     id="base"
     pagecolor="#ffffff"
     bordercolor="#666666"
     borderopacity="1.0"
     inkscape:pageopacity="0.0"
     inkscape:pageshadow="2"
     inkscape:zoom="0.70710678"
     inkscape:cx="248.42943"
     inkscape:cy="490.8144"
     inkscape:document-units="mm"
     inkscape:current-layer="layer1"
     showgrid="false"
     inkscape:pagecheckerboard="true"
     units="px"
     inkscape:window-width="1920"
     inkscape:window-height="1017"
     inkscape:window-x="-8"
     inkscape:window-y="-8"
     inkscape:window-maximized="1" />
  <metadata
     id="metadata5">
    <rdf:RDF>
      <cc:Work
         rdf:about="">
        <dc:format>image/svg+xml</dc:format>
        <dc:type
           rdf:resource="http://purl.org/dc/dcmitype/StillImage" />
        <dc:title />
      </cc:Work>
    </rdf:RDF>
  </metadata>
  <g
     inkscape:label="Layer 1"
     inkscape:groupmode="layer"
     id="layer1"
     transform="translate(0,-32.41665)">
    <path
       style="opacity:1;fill:url(#linearGradient893);fill-opacity:1;fill-rule:nonzero;stroke:#00ffdc;stroke-width:0;stroke-miterlimit:4;stroke-dasharray:none;stroke-opacity:1"
       d="M 500 50 A 25.000001 25.000001 0 0 0 475 75 A 25.000001 25.000001 0 0 0 500 100 A 25.000001 25.000001 0 0 0 525 75 A 25.000001 25.000001 0 0 0 500 50 z M 500 125 A 25.000001 25.000001 0 0 0 475 150 A 25.000001 25.000001 0 0 0 500 175 A 25.000001 25.000001 0 0 0 525 150 A 25.000001 25.000001 0 0 0 500 125 z M 380.29297 146.10742 A 25.000001 25.000001 0 0 0 355.29297 171.10742 A 25.000001 25.000001 0 0 0 380.29297 196.10742 A 25.000001 25.000001 0 0 0 405.29297 171.10742 A 25.000001 25.000001 0 0 0 380.29297 146.10742 z M 619.70703 146.10742 A 25.000001 25.000001 0 0 0 594.70703 171.10742 A 25.000001 25.000001 0 0 0 619.70703 196.10742 A 25.000001 25.000001 0 0 0 644.70703 171.10742 A 25.000001 25.000001 0 0 0 619.70703 146.10742 z M 199.48047 174.48047 A 25.000001 25.000001 0 0 0 174.48047 199.48047 A 25.000001 25.000001 0 0 0 199.48047 224.48047 A 25.000001 25.000001 0 0 0 224.48047 199.48047 A 25.000001 25.000001 0 0 0 199.48047 174.48047 z M 800.51953 174.48047 A 25.000001 25.000001 0 0 0 775.51953 199.48047 A 25.000001 25.000001 0 0 0 800.51953 224.48047 A 25.000001 25.000001 0 0 0 825.51953 199.48047 A 25.000001 25.000001 0 0 0 800.51953 174.48047 z M 500 200 A 25.000001 25.000001 0 0 0 475 225 A 25.000001 25.000001 0 0 0 500 250 A 25.000001 25.000001 0 0 0 525 225 A 25.000001 25.000001 0 0 0 500 200 z M 275.02344 206.88477 A 25.000001 25.000001 0 0 0 250.02344 231.88477 A 25.000001 25.000001 0 0 0 275.02344 256.88477 A 25.000001 25.000001 0 0 0 300.02344 231.88477 A 25.000001 25.000001 0 0 0 275.02344 206.88477 z M 724.97656 206.88477 A 25.000001 25.000001 0 0 0 699.97656 231.88477 A 25.000001 25.000001 0 0 0 724.97656 256.88477 A 25.000001 25.000001 0 0 0 749.97656 231.88477 A 25.000001 25.000001 0 0 0 724.97656 206.88477 z M 500 275 A 24.999999 24.999999 0 0 0 475 300 A 24.999999 24.999999 0 0 0 500 325 A 24.999999 24.999999 0 0 0 525 300 A 24.999999 24.999999 0 0 0 500 275 z M 305.54688 280.54688 A 25.000001 25.000001 0 0 0 280.54688 305.54688 A 25.000001 25.000001 0 0 0 305.54688 330.54688 A 25.000001 25.000001 0 0 0 330.54688 305.54688 A 25.000001 25.000001 0 0 0 305.54688 280.54688 z M 694.45312 280.54688 A 25.000001 25.000001 0 0 0 669.45312 305.54688 A 25.000001 25.000001 0 0 0 694.45312 330.54688 A 25.000001 25.000001 0 0 0 719.45312 305.54688 A 25.000001 25.000001 0 0 0 694.45312 280.54688 z M 196.89062 300 A 25.000001 25.000001 0 0 0 171.89062 325 A 25.000001 25.000001 0 0 0 196.89062 350 A 25.000001 25.000001 0 0 0 221.89062 325 A 25.000001 25.000001 0 0 0 196.89062 300 z M 803.10938 300 A 25.000001 25.000001 0 0 0 778.10938 325 A 25.000001 25.000001 0 0 0 803.10938 350 A 25.000001 25.000001 0 0 0 828.10938 325 A 25.000001 25.000001 0 0 0 803.10938 300 z M 500 375 A 125.00001 125.00001 0 0 0 375 500 A 125.00001 125.00001 0 0 0 500 625 A 125.00001 125.00001 0 0 0 625 500 A 125.00001 125.00001 0 0 0 500 375 z M 155.31641 414.22266 A 25.000001 25.000001 0 0 0 130.31641 439.22266 A 25.000001 25.000001 0 0 0 155.31641 464.22266 A 25.000001 25.000001 0 0 0 180.31641 439.22266 A 25.000001 25.000001 0 0 0 155.31641 414.22266 z M 844.68359 414.22266 A 25.000001 25.000001 0 0 0 819.68359 439.22266 A 25.000001 25.000001 0 0 0 844.68359 464.22266 A 25.000001 25.000001 0 0 0 869.68359 439.22266 A 25.000001 25.000001 0 0 0 844.68359 414.22266 z M 75 475 A 25.000001 25.000001 0 0 0 50 500 A 25.000001 25.000001 0 0 0 75 525 A 25.000001 25.000001 0 0 0 100 500 A 25.000001 25.000001 0 0 0 75 475 z M 225 475 A 25.000001 25.000001 0 0 0 200 500 A 25.000001 25.000001 0 0 0 225 525 A 25.000001 25.000001 0 0 0 250 500 A 25.000001 25.000001 0 0 0 225 475 z M 775 475 A 25.000001 25.000001 0 0 0 750 500 A 25.000001 25.000001 0 0 0 775 525 A 25.000001 25.000001 0 0 0 800 500 A 25.000001 25.000001 0 0 0 775 475 z M 925 475 A 25.000001 25.000001 0 0 0 900 500 A 25.000001 25.000001 0 0 0 925 525 A 25.000001 25.000001 0 0 0 950 500 A 25.000001 25.000001 0 0 0 925 475 z M 155.31641 535.77734 A 25.000001 25.000001 0 0 0 130.31641 560.77734 A 25.000001 25.000001 0 0 0 155.31641 585.77734 A 25.000001 25.000001 0 0 0 180.31641 560.77734 A 25.000001 25.000001 0 0 0 155.31641 535.77734 z M 844.68359 535.77734 A 25.000001 25.000001 0 0 0 819.68359 560.77734 A 25.000001 25.000001 0 0 0 844.68359 585.77734 A 25.000001 25.000001 0 0 0 869.68359 560.77734 A 25.000001 25.000001 0 0 0 844.68359 535.77734 z M 196.89062 650 A 25.000001 25.000001 0 0 0 171.89062 675 A 25.000001 25.000001 0 0 0 196.89062 700 A 25.000001 25.000001 0 0 0 221.89062 675 A 25.000001 25.000001 0 0 0 196.89062 650 z M 803.10938 650 A 25.000001 25.000001 0 0 0 778.10938 675 A 25.000001 25.000001 0 0 0 803.10938 700 A 25.000001 25.000001 0 0 0 828.10938 675 A 25.000001 25.000001 0 0 0 803.10938 650 z M 305.54688 669.45312 A 25.000001 25.000001 0 0 0 280.54688 694.45312 A 25.000001 25.000001 0 0 0 305.54688 719.45312 A 25.000001 25.000001 0 0 0 330.54688 694.45312 A 25.000001 25.000001 0 0 0 305.54688 669.45312 z M 694.45312 669.45312 A 25.000001 25.000001 0 0 0 669.45312 694.45312 A 25.000001 25.000001 0 0 0 694.45312 719.45312 A 25.000001 25.000001 0 0 0 719.45312 694.45312 A 25.000001 25.000001 0 0 0 694.45312 669.45312 z M 500 675 A 25.000001 25.000001 0 0 0 475 700 A 25.000001 25.000001 0 0 0 500 725 A 25.000001 25.000001 0 0 0 525 700 A 25.000001 25.000001 0 0 0 500 675 z M 275.02344 743.11523 A 25.000001 25.000001 0 0 0 250.02344 768.11523 A 25.000001 25.000001 0 0 0 275.02344 793.11523 A 25.000001 25.000001 0 0 0 300.02344 768.11523 A 25.000001 25.000001 0 0 0 275.02344 743.11523 z M 724.97656 743.11523 A 25.000001 25.000001 0 0 0 699.97656 768.11523 A 25.000001 25.000001 0 0 0 724.97656 793.11523 A 25.000001 25.000001 0 0 0 749.97656 768.11523 A 25.000001 25.000001 0 0 0 724.97656 743.11523 z M 500 750 A 25.000001 25.000001 0 0 0 475 775 A 25.000001 25.000001 0 0 0 500 800 A 25.000001 25.000001 0 0 0 525 775 A 25.000001 25.000001 0 0 0 500 750 z M 199.48047 775.51953 A 25.000001 25.000001 0 0 0 174.48047 800.51953 A 25.000001 25.000001 0 0 0 199.48047 825.51953 A 25.000001 25.000001 0 0 0 224.48047 800.51953 A 25.000001 25.000001 0 0 0 199.48047 775.51953 z M 800.51953 775.51953 A 25.000001 25.000001 0 0 0 775.51953 800.51953 A 25.000001 25.000001 0 0 0 800.51953 825.51953 A 25.000001 25.000001 0 0 0 825.51953 800.51953 A 25.000001 25.000001 0 0 0 800.51953 775.51953 z M 380.29297 803.89258 A 25.000001 25.000001 0 0 0 355.29297 828.89258 A 25.000001 25.000001 0 0 0 380.29297 853.89258 A 25.000001 25.000001 0 0 0 405.29297 828.89258 A 25.000001 25.000001 0 0 0 380.29297 803.89258 z M 619.70703 803.89258 A 25.000001 25.000001 0 0 0 594.70703 828.89258 A 25.000001 25.000001 0 0 0 619.70703 853.89258 A 25.000001 25.000001 0 0 0 644.70703 828.89258 A 25.000001 25.000001 0 0 0 619.70703 803.89258 z M 500 825 A 25.000001 25.000001 0 0 0 475 850 A 25.000001 25.000001 0 0 0 500 875 A 25.000001 25.000001 0 0 0 525 850 A 25.000001 25.000001 0 0 0 500 825 z M 500 900 A 25.000001 25.000001 0 0 0 475 925 A 25.000001 25.000001 0 0 0 500 950 A 25.000001 25.000001 0 0 0 525 925 A 25.000001 25.000001 0 0 0 500 900 z "
       id="path815"
       transform="matrix(0.26458333,0,0,0.26458333,0,32.41665)" />
    <text
       xml:space="preserve"
       style="font-style:normal;font-variant:normal;font-weight:normal;font-stretch:normal;font-size:35.27777481px;line-height:1.25;font-family:'Fira Code';-inkscape-font-specification:'Fira Code';letter-spacing:0px;word-spacing:0px;fill:#ffffff;fill-opacity:0.8745098;stroke:none;stroke-width:0.26458332"
       x="109.94258"
       y="177.16411"
       id="text899"><tspan
         sodipodi:role="line"
         id="tspan897"
         x="109.94258"
         y="177.16411"
         style="fill:#ffffff;fill-opacity:0.8745098;stroke-width:0.26458332">Kr</tspan></text>
  </g>
</svg>
